# xmcd CD database file
#
# Track frame offsets:
#	150
#	20107
#	38550
#	56045
#	76242
#	91615
#	108425
#	128302
#	142457
#	165895
#	188700
#
# Disc length: 2768 seconds
#
# Revision: 0
# Processed by: cddbd v1.5.1PL0 Copyright (c) Steve Scherf et al.
# Submitted via: CDex 1.51
#
DISCID=820ace0b
DTITLE=SweetShop - HomeMade
DYEAR=1999
DGENRE=J-POP
TTITLE0=光と影
TTITLE1=Cemetary
TTITLE2=夏の終わり
TTITLE3=月影にもたれて
TTITLE4=金木犀
TTITLE5=Mr.Pancake〜愛に帰ろう〜
TTITLE6=何回目かの冬を前にして
TTITLE7=幸せのかたち
TTITLE8=遠い街のどこかで
TTITLE9=雨を見てたよ
TTITLE10=青春のかけら
EXTD=YEAR: 1999
EXTT0=
EXTT1=
EXTT2=
EXTT3=
EXTT4=
EXTT5=
EXTT6=
EXTT7=
EXTT8=
EXTT9=
EXTT10=
PLAYORDER=
